<svg version="1.1" id="Layer_1" xmlns="http://www.w3.org/2000/svg" xmlns:xlink="http://www.w3.org/1999/xlink" x="0px" y="0px" viewBox="0 0 500 500" style="width: 183px;" xml:space="preserve" data-imageid="party-71" imageName="Party" class="illustrations_image">
<style type="text/css">
	.st0_party-71{fill:#FFC9B0;}
	.st1_party-71{fill:#093F68;}
	.st2_party-71{fill:#68E1FD;}
	.st3_party-71{fill:#725858;}
	.st4_party-71{fill:#FFFFFF;}
	.st5_party-71{fill:#AD7972;}
	.st6_party-71{fill:#F56132;}
	.st7_party-71{fill:#FFBC0E;}
	.st8_party-71{fill:#70CC40;}
	.st9_party-71{fill:#DFEAEF;}
</style>
<g id="character_party-71">
	<path class="st0_party-71" d="M235.4,235.6c0.4-0.1,4.5-7.9,4.5-7.9s-0.2-6.6-0.2-9.8s2.5-3.8,3.2-2.2s1.2,6.3,1.3,6.3s3.8-10.5,4.8-11&#xA;&#9;&#9;s10.6,4.6,11,7.8c0.2,1.6-1.4,6.8-3.2,11.8c-0.5,1.4-5.4,4.4-5.4,4.4c-1,2-2.2,4-3.6,5.8L235.4,235.6z"/>
	<path class="st1_party-71" d="M247.6,242.4c-0.2,0-0.4,0-0.6-0.1l-12.3-5.2c-0.8-0.3-1.2-1.3-0.8-2.1c0.1-0.2,0.2-0.4,0.4-0.6&#xA;&#9;&#9;c0.5-0.7,2.3-4,4-7.1c0-1.5-0.2-6.7-0.2-9.4s1.6-4.3,2.9-4.5c1.4-0.3,2.7,0.4,3.3,1.7c0.2,0.4,0.3,0.7,0.4,1.1&#xA;&#9;&#9;c2.2-5.5,2.7-6.3,3.5-6.6c0.5-0.3,1.2-0.6,4.8,1.2c1.9,1,8,4.3,8.5,7.8c0.3,2.2-1.6,8.1-3.4,12.6c-0.6,1.6-3.6,3.7-5.7,5&#xA;&#9;&#9;c-1,2-2.3,4-3.7,5.8C248.5,242.2,248.1,242.4,247.6,242.4z M237.7,234.9l9.4,4c1-1.5,1.9-3,2.7-4.6c0.1-0.3,0.3-0.5,0.6-0.6&#xA;&#9;&#9;c1.8-1,3.4-2.2,4.8-3.7c2.5-6.7,3.3-10.3,3.2-11c-0.3-1.7-6.4-5.5-8.8-6.3c-0.8,1.6-2.5,5.9-3.1,7.6c-1.1,2.9-1.3,3.3-2.4,3.2&#xA;&#9;&#9;c-1.3-0.1-1.5-1.1-1.7-2.7c-0.2-1.4-0.4-2.8-0.8-4.2c-0.2,0.4-0.3,0.8-0.3,1.3c0,3.1,0.2,9.7,0.2,9.7c0,0.3-0.1,0.5-0.2,0.8&#xA;&#9;&#9;C239.5,231.6,238.5,233.6,237.7,234.9z M234.9,234.1L234.9,234.1z"/>
	<path class="st1_party-71" d="M247,231c-0.8,0-1.5-0.7-1.6-1.5c0-2.4-0.9-4.6-2.4-6.4c-0.6-0.6-0.7-1.6-0.1-2.2c0.6-0.6,1.6-0.7,2.2-0.1&#xA;&#9;&#9;c2.1,2.3,3.3,5.4,3.4,8.5C248.6,230.2,248,230.9,247,231L247,231z"/>
	<path class="st0_party-71" d="M71.9,175.5c-0.4-0.1-4.5-7.9-4.5-7.9s0.2-6.6,0.2-9.8s-2.5-3.8-3.2-2.2s-1.1,6.2-1.3,6.2s-3.8-10.5-4.8-11&#xA;&#9;&#9;s-10.6,4.5-11.1,7.8c-0.2,1.6,1.4,6.8,3.3,11.8c0.5,1.4,5.4,4.4,5.4,4.4c1,2,2.2,4,3.6,5.8L71.9,175.5z"/>
	<path class="st1_party-71" d="M58.5,181.8c-1.4-1.8-2.7-3.7-3.7-5.8c-2-1.3-5.1-3.4-5.7-5c-1.7-4.6-3.7-10.5-3.3-12.6&#xA;&#9;&#9;c0.5-3.4,6.7-6.8,8.5-7.8c3.6-1.8,4.3-1.4,4.8-1.2c0.8,0.4,1.3,1.1,3.5,6.6c0.1-0.4,0.2-0.7,0.4-1.1c0.5-1.3,1.9-2,3.3-1.7&#xA;&#9;&#9;c1.3,0.3,2.9,1.6,2.9,4.5s-0.1,7.9-0.2,9.4c1.6,3.1,3.5,6.4,4,7.1c0.3,0.3,0.5,0.7,0.5,1.1c0,0.7-0.3,1.3-0.9,1.6l-12.3,5.2&#xA;&#9;&#9;c-0.2,0.1-0.4,0.1-0.6,0.1C59.2,182.3,58.8,182.1,58.5,181.8z M66,168.4c-0.1-0.2-0.2-0.5-0.2-0.8c0-0.1,0.2-6.6,0.2-9.7&#xA;&#9;&#9;c0-0.4-0.1-0.9-0.3-1.3c-0.4,1.4-0.6,2.8-0.8,4.2c-0.2,1.6-0.4,2.6-1.7,2.7c-1.2,0.1-1.3-0.3-2.4-3.2c-0.7-1.7-2.3-6-3.1-7.6&#xA;&#9;&#9;c-2.4,0.8-8.5,4.6-8.8,6.3c-0.1,0.7,0.7,4.3,3.2,11c1.4,1.4,3,2.7,4.8,3.7c0.2,0.2,0.4,0.4,0.6,0.6c0.8,1.6,1.7,3.1,2.7,4.6l9.4-4&#xA;&#9;&#9;C68.8,173.6,67.7,171.6,66,168.4z M72.4,174L72.4,174z"/>
	<path class="st1_party-71" d="M60.3,170.9c0.8,0,1.5-0.7,1.6-1.5c0-2.4,0.9-4.7,2.4-6.4c0.6-0.6,0.6-1.6-0.1-2.2c-0.6-0.6-1.5-0.6-2.1-0.1&#xA;&#9;&#9;c-0.1,0.1-3.1,2.9-3.4,8.5c-0.1,0.9,0.6,1.6,1.5,1.7C60.2,170.9,60.2,170.9,60.3,170.9L60.3,170.9z"/>
	<path class="st2_party-71 targetColor" d="M252.3,243.4c-1.6,2.3-14.5,24.3-33.3,33.4c-4.8,2.4-10.1,3.6-15.4,3.6c-4.1,0-9.5-3-14.1-6.1&#xA;&#9;&#9;c-2.5-1.7-4.7-3.5-6.3-4.7s-2.4-2.1-2.4-2.1v8.4l-0.1,32.1h-57v-34.7c0-5.8-0.7-11.5-1-17.3c-9.3-5.6-36.1-21.9-38.8-25.5&#xA;&#9;&#9;c-3.3-4.3-27.6-47.7-27.6-47.7l15.7-15l28,46.1l36.1,23.8c2.7-0.1,5.4-0.2,8.1-0.2c6.9,0,13.7,0.6,20.6,0.5&#xA;&#9;&#9;c8.8-0.1,17.4,3.2,23.9,9.2c5.8,5.2,13.5,10.2,19.5,7.3c11.1-5.4,22.2-19.2,25.6-24.1L252.3,243.4z" style="fill: rgb(68, 176, 255);"/>
	<path class="st1_party-71" d="M180.8,309.6h-57c-0.8,0-1.5-0.7-1.5-1.5v-34.7c0-3.7-0.3-7.5-0.6-11.1c-0.1-1.7-0.3-3.5-0.4-5.3&#xA;&#9;&#9;c-13.6-8.2-35.8-21.9-38.6-25.4c-3.4-4.3-26.7-46.1-27.7-47.9c-0.3-0.6-0.2-1.3,0.3-1.8l15.7-15c0.3-0.3,0.8-0.5,1.2-0.4&#xA;&#9;&#9;c0.4,0.1,0.8,0.3,1.1,0.7l27.9,45.9l35.4,23.4c2.6-0.1,5.1-0.2,7.6-0.1c3.2,0,6.4,0.1,9.4,0.3c3.6,0.1,7.4,0.3,11.1,0.2&#xA;&#9;&#9;c9.2-0.1,18.1,3.3,24.9,9.6c5.2,4.7,12.4,9.7,17.8,7c10.8-5.3,21.9-19.1,25-23.6c0.2-0.3,0.6-0.6,1-0.6c0.4-0.1,0.8,0,1.1,0.2&#xA;&#9;&#9;l18.6,12.8c0.7,0.5,0.8,1.4,0.4,2.1c-0.1,0.2-0.3,0.5-0.6,1c-12.9,20.2-25.2,29.1-33.2,33c-5,2.5-10.5,3.8-16.1,3.8&#xA;&#9;&#9;c-3.8,0-8.6-2.1-14.9-6.4c-2.4-1.6-4.4-3.3-6.4-4.8l-0.1,37.3C182.2,308.9,181.6,309.6,180.8,309.6z M125.3,306.6h54l0.1-39&#xA;&#9;&#9;c0-0.8,0.7-1.5,1.5-1.5c0.4,0,0.7,0.1,1,0.4c0,0,0.9,0.8,2.4,2.1c1.8,1.5,3.9,3.1,6.2,4.6c7.1,4.8,11.1,5.9,13.2,5.9&#xA;&#9;&#9;c5.1,0,10.2-1.2,14.8-3.5c7.6-3.7,19.4-12.3,31.9-31.7l-16.1-11.1c-4.2,5.7-14.7,18.1-25.3,23.3c-5.5,2.7-12.6,0.2-21.1-7.5&#xA;&#9;&#9;c-6.3-5.7-14.4-8.8-22.9-8.8c-3.8,0.1-7.6-0.1-11.2-0.2c-3.1-0.1-6.2-0.2-9.4-0.3c-2.6,0-5.3,0.1-8,0.2c-0.3,0-0.6-0.1-0.9-0.2&#xA;&#9;&#9;l-36.2-23.9c-0.2-0.1-0.3-0.3-0.4-0.5l-27-44.5l-13.5,12.9c8.5,15.2,24.3,43.2,26.9,46.5c1.8,2.2,16.5,11.9,38.4,25.1&#xA;&#9;&#9;c0.4,0.3,0.7,0.7,0.7,1.2c0.1,2,0.3,4.1,0.4,6c0.3,3.7,0.6,7.5,0.6,11.3L125.3,306.6z"/>
	<path class="st0_party-71" d="M145.6,232.9H158l0,0v9.5c0,1.6-1.3,2.9-2.9,2.9l0,0h-6.6c-1.6,0-2.9-1.3-2.9-2.9l0,0L145.6,232.9L145.6,232.9&#xA;&#9;&#9;z"/>
	<path class="st1_party-71" d="M152.7,246.9h-1.9c-3.8,0-6.9-3.1-6.9-6.9c0,0,0,0,0,0v-7.2c0-0.9,0.7-1.6,1.6-1.6h0H158&#xA;&#9;&#9;c0.9,0,1.6,0.7,1.6,1.6c0,0,0,0,0,0v7.2C159.6,243.8,156.5,246.9,152.7,246.9z M147.1,234.4v5.6c0,2,1.7,3.7,3.7,3.7h1.9&#xA;&#9;&#9;c2,0,3.7-1.7,3.7-3.7v0v-5.6L147.1,234.4z"/>
	<path class="st3_party-71" d="M108,200.5c0,0-11.1-46.7-7-54.2s10.6-4.6,10.6-4.6s8.8-25.2,28.1-26.3s28.9,12.1,39.7,10.6s16-5.4,16-5.4&#xA;&#9;&#9;c3.7,7.1,2.8,15.7-2.3,21.9c0,0,8-4.9,9,6.4s-6,50.5-6,50.5l-7.7-1.3L108,200.5z"/>
	<path class="st1_party-71" d="M108,202.1c-0.7,0-1.4-0.5-1.5-1.2c-1.2-4.9-11.1-47.6-6.8-55.3c3.2-5.8,7.9-6.4,11-5.8&#xA;&#9;&#9;c2.2-5.5,11.3-25,28.9-25.9c11.1-0.6,19.2,3.4,25.7,6.6c5.1,2.5,9.4,4.6,13.8,4c10.3-1.5,15.2-5.1,15.2-5.1&#xA;&#9;&#9;c0.4-0.3,0.8-0.4,1.3-0.3c0.4,0.1,0.8,0.4,1.1,0.8c0.1,0.1,5.5,9.8,0,20.1c0.9,0,1.9,0.2,2.7,0.6c2.4,1.2,3.8,4,4.2,8.3&#xA;&#9;&#9;c1,11.4-5.7,49.3-5.9,50.9c-0.1,0.9-1,1.4-1.8,1.3c0,0,0,0,0,0l-7.6-1.3L108,202.1z M108.7,142.7c-1.8,0-4.3,0.8-6.3,4.4&#xA;&#9;&#9;c-2.7,4.9,2.6,33.9,6.8,51.8l79.1-2.5c0.1,0,0.2,0,0.3,0l6.2,1.1c1.3-7.4,6.5-38.8,5.6-48.5c-0.3-3.1-1.1-5.1-2.5-5.8&#xA;&#9;&#9;s-3.5,0.1-4.1,0.5c-0.8,0.4-1.7,0.1-2.1-0.7c-0.3-0.5-0.2-1.2,0.1-1.7c4.4-5.2,5.5-12.4,2.9-18.6c-4.7,2.5-9.8,4.1-15.1,4.7&#xA;&#9;&#9;c-5.3,0.8-10.1-1.6-15.6-4.3c-6.5-3.2-13.9-6.8-24.2-6.2c-18,1-26.6,25-26.7,25.2c-0.1,0.4-0.5,0.8-0.9,0.9c-0.4,0.2-0.9,0.2-1.3,0&#xA;&#9;&#9;C110.3,142.8,109.5,142.7,108.7,142.7L108.7,142.7z"/>
	<ellipse class="st0_party-71" cx="116.2" cy="200.5" rx="12.1" ry="10.4"/>
	<path class="st1_party-71" d="M116.2,212.5c-7.6,0-13.7-5.4-13.7-12s6.1-12,13.7-12s13.7,5.4,13.7,12S123.7,212.5,116.2,212.5z M116.2,191.6&#xA;&#9;&#9;c-5.8,0-10.5,4-10.5,8.9s4.7,8.9,10.5,8.9s10.5-4,10.5-8.9S122,191.6,116.2,191.6z"/>
	<ellipse class="st0_party-71" cx="186.8" cy="200.5" rx="12.1" ry="10.4"/>
	<path class="st1_party-71" d="M186.8,212.5c-7.6,0-13.7-5.4-13.7-12s6.1-12,13.7-12s13.7,5.4,13.7,12S194.3,212.5,186.8,212.5z M186.8,191.6&#xA;&#9;&#9;c-5.8,0-10.5,4-10.5,8.9s4.7,8.9,10.5,8.9s10.5-4,10.5-8.9S192.6,191.6,186.8,191.6z"/>
	<path class="st0_party-71" d="M151.8,234.5L151.8,234.5c-20.2,0-36.5-16.3-36.5-36.5v-33.8c0,0,4.5,9.5,17.9-3.4&#xA;&#9;&#9;c38.9,19.7,55.1,3.4,55.1,3.4V198C188.3,218.2,172,234.5,151.8,234.5z"/>
	<path class="st1_party-71" d="M151.8,236.1c-21,0-38.1-17.1-38.1-38.1v-33.8c0-0.7,0.5-1.4,1.2-1.5c0.7-0.2,1.5,0.2,1.8,0.9&#xA;&#9;&#9;c0.7,1.3,2,2.2,3.4,2.4c2.1,0.4,5.9-0.4,12-6.2c0.5-0.5,1.2-0.6,1.8-0.3c19.5,9.9,33,10.3,40.9,9c8.4-1.5,12.4-5.3,12.4-5.3&#xA;&#9;&#9;c0.6-0.6,1.6-0.6,2.2,0c0.3,0.3,0.5,0.7,0.5,1.1V198C189.9,219,172.8,236.1,151.8,236.1z M116.9,168.1v30&#xA;&#9;&#9;c0,19.3,15.6,34.9,34.9,34.9l0,0c19.3,0,34.9-15.7,34.9-35v-30.6c-6.1,3.9-22.8,10.5-53.3-4.6c-5.3,4.9-10,7-14,6.3&#xA;&#9;&#9;C118.5,168.8,117.7,168.5,116.9,168.1L116.9,168.1z"/>
	<circle class="st1_party-71" cx="134.9" cy="192.7" r="3.4"/>
	<circle class="st1_party-71" cx="169.8" cy="192.7" r="3.4"/>
	<path class="st4_party-71" d="M165.1,209c0.2,7.4-5.6,13.5-13,13.7c-7.4,0.2-13.5-5.6-13.7-13c0-0.2,0-0.5,0-0.7H165.1z"/>
	<path class="st1_party-71" d="M151.8,223.9c-8.2,0-14.9-6.7-14.9-14.9c0-0.9,0.7-1.6,1.6-1.6c0,0,0,0,0,0h26.6c0.9,0,1.6,0.7,1.6,1.6l0,0&#xA;&#9;&#9;C166.7,217.2,160,223.9,151.8,223.9z M140.2,210.6c0.9,6.4,6.8,10.9,13.2,10.1c5.2-0.7,9.4-4.8,10.1-10.1H140.2z"/>
	<path class="st1_party-71" d="M151.6,205.6c-1.1,0-2.3-0.1-3.4-0.3c-0.9-0.2-1.4-1-1.2-1.9c0.2-0.8,0.9-1.3,1.7-1.2c1.5,0.2,2.9,0.3,4.4,0.1&#xA;&#9;&#9;c-0.6-2.6-1.5-5-2.8-7.3c-0.4-0.8-0.2-1.7,0.6-2.2c0.8-0.4,1.7-0.2,2.2,0.6c0,0,0,0.1,0.1,0.1c1.5,2.9,3.9,8.1,2.9,10.4&#xA;&#9;&#9;c-0.3,0.7-0.9,1.2-1.6,1.3C153.5,205.5,152.6,205.6,151.6,205.6z"/>
	<path class="st1_party-71" d="M125.8,185.7c-1.7,0-3.1-1.4-3.1-3.2c0-1.5,1.1-2.8,2.5-3.1l15.8-3c1.7-0.4,3.4,0.6,3.8,2.3&#xA;&#9;&#9;c0.4,1.7-0.6,3.4-2.3,3.8c-0.1,0-0.2,0-0.3,0.1l-15.8,3C126.2,185.7,126,185.7,125.8,185.7z"/>
	<path class="st1_party-71" d="M180.8,185.7c-0.2,0-0.4,0-0.6-0.1l-15.8-3c-1.7-0.2-2.9-1.8-2.7-3.6c0.2-1.7,1.8-2.9,3.6-2.7&#xA;&#9;&#9;c0.1,0,0.2,0,0.3,0.1l15.8,3c1.7,0.3,2.8,2,2.5,3.7C183.5,184.7,182.3,185.7,180.8,185.7L180.8,185.7z"/>
	<rect x="124.4" y="308.1" class="st1_party-71" width="18.2" height="123.9"/>
	<path class="st1_party-71" d="M137,308.1h31.2l0,0v16.2c0,3.4-2.8,6.1-6.1,6.1h-18.9c-3.4,0-6.1-2.8-6.1-6.1L137,308.1L137,308.1z"/>
	<path class="st1_party-71" d="M157.1,332h-9.1c-7,0-12.6-5.7-12.6-12.6v-11.3c0-0.9,0.7-1.6,1.6-1.6h31.2c0.9,0,1.6,0.7,1.6,1.6c0,0,0,0,0,0&#xA;&#9;&#9;v11.3C169.8,326.4,164.1,332,157.1,332z M138.6,309.6v9.8c0,5.2,4.2,9.5,9.5,9.5h9.1c5.2,0,9.5-4.2,9.5-9.5v-9.8H138.6z"/>
	<path class="st5_party-71" d="M164.1,384.5l-7.8,11.5l26.5,18c0,0,4.6-9.8-4.2-19.6L164.1,384.5z"/>
	<path class="st1_party-71" d="M182,415.4l-26.6-18c-0.7-0.5-0.9-1.5-0.4-2.2c0,0,0,0,0,0l7.8-11.5c0.5-0.7,1.5-0.9,2.2-0.4l14.6,9.9&#xA;&#9;&#9;c0.1,0.1,0.2,0.2,0.3,0.2c9.4,10.5,4.6,20.9,4.4,21.4c-0.4,0.8-1.3,1.1-2.1,0.8C182.2,415.5,182.1,415.5,182,415.4L182,415.4z&#xA;&#9;&#9; M158.5,395.6l23.5,16c0.8-3,1.4-9.4-4.4-16l-13.1-8.9L158.5,395.6z"/>
	<path class="st1_party-71" d="M180.8,308.1c0,0,19.9,36.6,21.3,38.9s-24.4,48.7-24.4,48.7L165,383.2l14.3-33.3l-17.2-19.4l1.4-20.8&#xA;&#9;&#9;L180.8,308.1z"/>
	<path class="st5_party-71" d="M140.8,425.4l6.3,12.4l-28.6,14.5c0,0-3.3-10.3,6.7-18.9L140.8,425.4z"/>
	<path class="st1_party-71" d="M147.8,439.2l-28.6,14.5c-0.8,0.4-1.7,0.1-2.1-0.7c0-0.1-0.1-0.2-0.1-0.3c-0.2-0.5-3.5-11.4,7.1-20.6&#xA;&#9;&#9;c0.1-0.1,0.2-0.2,0.3-0.2l15.7-7.9c0.8-0.4,1.7-0.1,2.1,0.7c0,0,0,0,0,0l6.3,12.4C148.9,437.9,148.6,438.8,147.8,439.2z&#xA;&#9;&#9; M119.6,449.9l25.4-12.8l-4.9-9.6l-14.1,7.1C119.5,440.4,119.2,446.8,119.6,449.9z"/>
	<path class="st1_party-71" d="M180.9,269.1c-0.9,0-1.6-0.7-1.6-1.6V255c0-0.9,0.7-1.6,1.6-1.6s1.6,0.7,1.6,1.6v12.5&#xA;&#9;&#9;C182.4,268.4,181.7,269.1,180.9,269.1z"/>
</g>
<g id="confetti_party-71">
	<g id="confetti-2_party-71">
		<path class="st2_party-71 targetColor" d="M306.3,159.4l-76.1-10.5l2.6,13.1l2.2,11.1l2.3,11.6l2.2,11.2l2.3,11.6l2.2,11.1l2.3,11.6l2.2,11.1l1.6,8&#xA;&#9;&#9;&#9;c0.2,1,0.7,2,1.5,2.8c2.1,2,5.3,1.9,7.3-0.2c0.4-0.4,0.7-0.8,0.9-1.3l6.2-12.3l6.4-12.6l6.8-13.1l6.4-12.6l6.7-13.2l6.4-12.6&#xA;&#9;&#9;&#9;l6.7-13.2L306.3,159.4z" style="fill: rgb(68, 176, 255);"/>
		<path class="st1_party-71" d="M255.2,255.2c-1.7,0-3.4-0.6-4.6-1.8c-1-1-1.7-2.2-1.9-3.5l-19.9-100.7c-0.1-0.5,0.1-1,0.4-1.3&#xA;&#9;&#9;&#9;c0.3-0.4,0.8-0.5,1.3-0.4l76.1,10.5c0.5,0.1,0.9,0.4,1.1,0.8c0.2,0.4,0.2,0.9,0,1.4l-0.9,1.9l-26.2,51.6l-6.8,13.1l-12.7,24.9&#xA;&#9;&#9;&#9;c-0.3,0.6-0.7,1.2-1.2,1.6c-1.2,1.3-2.9,2-4.6,2L255.2,255.2z M232.2,150.7l19.4,98.6c0.2,0.7,0.5,1.4,1.1,1.9&#xA;&#9;&#9;&#9;c1.5,1.4,3.8,1.3,5.2-0.1c0.3-0.2,0.5-0.5,0.6-0.9l12.7-25l6.8-13.1l26.2-51.5L232.2,150.7z"/>
		<polygon class="st4_party-71" points="272.5,226 246.4,230.4 248.6,241.5 266.1,238.6 &#9;&#9;"/>
		<path class="st1_party-71" d="M247.9,242.1c-0.1-0.1-0.1-0.2-0.1-0.4l-2.2-11.1c-0.1-0.5,0.2-0.9,0.7-1c0,0,0,0,0.1,0l0,0l26.1-4.4&#xA;&#9;&#9;&#9;c0.3-0.1,0.7,0.1,0.9,0.4c0.2,0.3,0.2,0.6,0.1,0.9l-6.4,12.6c-0.1,0.3-0.4,0.4-0.7,0.5l-17.5,3&#xA;&#9;&#9;&#9;C248.4,242.5,248.1,242.3,247.9,242.1z M247.4,231.1l1.9,9.4l16.2-2.8l5.4-10.6L247.4,231.1z"/>
		<polygon class="st4_party-71" points="285.6,200.2 241.9,207.6 244.1,218.8 279.2,212.8 &#9;&#9;"/>
		<path class="st1_party-71" d="M243.4,219.3c-0.1-0.1-0.1-0.2-0.1-0.4l-2.2-11.2c-0.1-0.2,0-0.5,0.1-0.7c0.1-0.2,0.3-0.3,0.6-0.4l43.7-7.4&#xA;&#9;&#9;&#9;c0.3-0.1,0.7,0.1,0.9,0.4c0.2,0.3,0.2,0.6,0.1,0.9l-6.3,12.6c-0.1,0.3-0.4,0.4-0.7,0.5l-35.1,5.9&#xA;&#9;&#9;&#9;C243.9,219.7,243.6,219.5,243.4,219.3z M243,208.4l1.9,9.4l33.8-5.7l5.4-10.6L243,208.4z"/>
		<polygon class="st4_party-71" points="298.7,174.4 237.4,184.8 239.6,196 292.3,187 &#9;&#9;"/>
		<path class="st1_party-71" d="M238.9,196.5c-0.1-0.1-0.1-0.2-0.1-0.4l-2.2-11.1c-0.1-0.2,0-0.5,0.1-0.7c0.1-0.2,0.3-0.3,0.6-0.4l61.3-10.4&#xA;&#9;&#9;&#9;c0.5-0.1,0.9,0.3,1,0.8c0,0,0,0,0,0c0,0.2,0,0.3,0,0.5l-6.4,12.6c-0.1,0.3-0.4,0.4-0.7,0.5l-52.7,8.9&#xA;&#9;&#9;&#9;C239.4,196.9,239.1,196.8,238.9,196.5z M238.4,185.6l1.9,9.4l51.4-8.7l5.4-10.7L238.4,185.6z"/>
		<polygon class="st4_party-71" points="306.3,159.4 274.4,155 232.9,162.1 235.1,173.2 305.4,161.2 &#9;&#9;"/>
		<path class="st1_party-71" d="M234.3,173.7c-0.1-0.1-0.1-0.2-0.1-0.4l-2.2-11.1c-0.1-0.2,0-0.5,0.1-0.7c0.1-0.2,0.3-0.3,0.6-0.4l41.5-7&#xA;&#9;&#9;&#9;c0.1,0,0.2,0,0.3,0l31.9,4.4c0.5,0.1,0.8,0.5,0.8,1c0,0.1,0,0.2-0.1,0.3l-0.9,1.9c-0.1,0.3-0.4,0.4-0.7,0.5l-70.3,11.9&#xA;&#9;&#9;&#9;C234.9,174.1,234.5,173.9,234.3,173.7z M233.9,162.8l1.8,9.4l69-11.7l0.2-0.3l-30.6-4.2L233.9,162.8z"/>
	</g>
	
		<rect x="321.3" y="92.3" transform="matrix(0.9158 -0.4016 0.4016 0.9158 -11.9726 138.1852)" class="st6_party-71" width="4.5" height="10.7"/>
	<path class="st1_party-71" d="M322.9,104l-0.1-0.2l-4.3-9.8c-0.2-0.5,0-0.9,0.4-1.2l4.1-1.8c0.4-0.2,1,0,1.1,0.5l4.3,9.8&#xA;&#9;&#9;c0.1,0.2,0.1,0.5,0,0.7c-0.1,0.2-0.3,0.4-0.5,0.5l-4.1,1.8C323.6,104.4,323.2,104.3,322.9,104z M320.5,94.1l3.6,8.2l2.5-1.1L323,93&#xA;&#9;&#9;L320.5,94.1z"/>
	
		<ellipse transform="matrix(0.1602 -0.9871 0.9871 0.1602 110.7311 336.9088)" class="st6_party-71" cx="253.4" cy="103.4" rx="11.9" ry="11.9"/>
	<path class="st1_party-71" d="M242.8,110.6c-4.1-5.8-2.7-13.9,3.2-17.9s13.9-2.7,17.9,3.2c4.1,5.8,2.7,13.9-3.2,17.9&#xA;&#9;&#9;c-5.5,3.8-13,2.8-17.3-2.3C243.2,111.2,243,110.9,242.8,110.6z M262.5,97.1c-0.2-0.3-0.4-0.5-0.6-0.7c-3.9-4.6-10.8-5.2-15.4-1.3&#xA;&#9;&#9;c-4.6,3.9-5.2,10.8-1.3,15.4c3.9,4.6,10.8,5.2,15.4,1.3C265,108.1,265.8,101.7,262.5,97.1z"/>
	<circle class="st7_party-71" cx="259.8" cy="139.3" r="5.6"/>
	<path class="st1_party-71" d="M254.4,143c-1.9-2.8-1.4-6.5,1.2-8.7l0,0c2.8-2.3,6.9-1.9,9.1,0.9c2.3,2.8,1.9,6.9-0.9,9.1&#xA;&#9;&#9;c-2.8,2.3-6.9,1.9-9.1-0.9c0,0,0,0,0,0l0,0L254.4,143z M256.8,135.7c-2,1.6-2.3,4.6-0.7,6.6c1.6,2,4.6,2.3,6.6,0.7&#xA;&#9;&#9;c2-1.6,2.3-4.6,0.7-6.6l0,0C261.8,134.3,258.9,134,256.8,135.7C256.8,135.6,256.8,135.7,256.8,135.7z"/>
	<path class="st8_party-71" d="M289.3,115.2l-5.7,4.5l-7-2.2c-0.6-0.2-1.3,0.1-1.5,0.8c0,0,0,0,0,0c-0.1,0.3-0.1,0.6,0,0.8l2.5,6.8l-4.2,5.9&#xA;&#9;&#9;c-0.4,0.5-0.3,1.3,0.3,1.7c0,0,0,0,0,0c0.2,0.2,0.5,0.2,0.8,0.2l7.3-0.2l4.3,5.8c0.4,0.5,1.2,0.6,1.8,0.2c0.2-0.2,0.4-0.4,0.4-0.6&#xA;&#9;&#9;l2-7l6.9-2.3c0.6-0.2,1-0.9,0.8-1.6c0,0,0,0,0,0c-0.1-0.3-0.3-0.5-0.5-0.6l-6-4.1l0-7.2c-0.1-0.7-0.7-1.2-1.3-1.1c0,0,0,0,0,0&#xA;&#9;&#9;C289.8,115,289.5,115.1,289.3,115.2z"/>
	<path class="st1_party-71" d="M272.5,133.7l-0.1-0.2c-0.4-0.7-0.3-1.6,0.1-2.3l4-5.5l-2.3-6.4c-0.4-1.1,0.2-2.3,1.3-2.7c0,0,0,0,0,0&#xA;&#9;&#9;c0.4-0.2,0.9-0.2,1.4,0l6.5,2.1l5.4-4.2l0,0c0.9-0.7,2.2-0.6,3,0.3c0,0,0,0,0,0.1c0.3,0.4,0.5,0.8,0.5,1.3v6.8l5.6,3.8&#xA;&#9;&#9;c1,0.7,1.2,2,0.6,3c-0.3,0.4-0.6,0.7-1.1,0.8l-6.5,2.1l-1.9,6.5c-0.3,1.1-1.5,1.8-2.6,1.4c-0.4-0.1-0.8-0.4-1.1-0.8l-4-5.5&#xA;&#9;&#9;l-6.8,0.2C273.7,134.7,273,134.3,272.5,133.7z M289.9,115.9l-5.7,4.5c-0.2,0.2-0.6,0.2-0.8,0.1l-6.9-2.2c-0.2,0-0.4,0.1-0.4,0.2&#xA;&#9;&#9;c0,0.1,0,0.1,0,0.2l2.5,6.8c0.1,0.3,0.1,0.6-0.1,0.8l-4.3,5.9c-0.1,0.1-0.1,0.3,0,0.4c0.1,0.1,0.2,0.2,0.3,0.2l7.3-0.2&#xA;&#9;&#9;c0.3,0,0.6,0.1,0.8,0.4l4.3,5.8c0.1,0.2,0.3,0.2,0.5,0.1c0.1-0.1,0.1-0.1,0.1-0.2l2-7c0.1-0.3,0.3-0.5,0.6-0.6l6.9-2.3&#xA;&#9;&#9;c0.2-0.1,0.3-0.3,0.2-0.4c0-0.1-0.1-0.2-0.1-0.2l-6-4.1c-0.2-0.2-0.4-0.4-0.4-0.7l0-7.2c0-0.1-0.1-0.3-0.2-0.3&#xA;&#9;&#9;C290.1,115.8,290,115.8,289.9,115.9L289.9,115.9z"/>
	<path class="st7_party-71" d="M301,78.2l-7.1,1.8l-5.5-4.8c-0.5-0.5-1.3-0.4-1.7,0.1c0,0,0,0,0,0c-0.2,0.2-0.3,0.5-0.3,0.7l-0.5,7.3&#xA;&#9;&#9;l-6.3,3.7c-0.6,0.3-0.8,1.1-0.4,1.7c0.1,0.2,0.3,0.4,0.6,0.5l6.8,2.7l1.6,7.1c0.1,0.7,0.8,1.1,1.5,1c0.3-0.1,0.5-0.2,0.7-0.4&#xA;&#9;&#9;l4.7-5.6l7.2,0.7c0.7,0.1,1.3-0.4,1.3-1.1c0,0,0,0,0,0c0-0.3-0.1-0.6-0.2-0.8l-3.8-6.2l2.9-6.7c0.3-0.6,0-1.4-0.7-1.6c0,0,0,0,0,0&#xA;&#9;&#9;C301.5,78.1,301.2,78.1,301,78.2z"/>
	<path class="st1_party-71" d="M278.5,89.2c-0.7-1-0.5-2.3,0.5-3c0,0,0,0,0,0l0.1-0.1l5.9-3.4l0.5-6.8c0.1-1.2,1.1-2.1,2.3-2&#xA;&#9;&#9;c0.5,0,0.9,0.2,1.2,0.5l5.1,4.6l6.6-1.6c1.1-0.3,2.3,0.4,2.6,1.6c0.1,0.5,0.1,0.9-0.1,1.3l-2.7,6.2l3.6,5.8c0.6,1,0.3,2.3-0.6,2.9&#xA;&#9;&#9;c0,0,0,0,0,0c-0.4,0.3-0.9,0.4-1.3,0.3l-6.8-0.7l-4.4,5.2c-0.8,0.9-2.1,1-3,0.3c-0.4-0.3-0.6-0.7-0.7-1.2l-1.5-6.6l-6.3-2.6&#xA;&#9;&#9;C279,89.8,278.7,89.5,278.5,89.2z M301.5,79.2L301.5,79.2c-0.1-0.1-0.2-0.2-0.4-0.1l0,0l-7.1,1.8c-0.3,0.1-0.6,0-0.8-0.2l-5.5-4.8&#xA;&#9;&#9;c-0.1-0.1-0.4-0.1-0.5,0c-0.1,0.1-0.1,0.1-0.1,0.2l-0.5,7.2c0,0.3-0.2,0.6-0.5,0.7l-6.3,3.6c-0.1,0.1-0.2,0.2-0.2,0.3&#xA;&#9;&#9;c0,0.1,0.1,0.3,0.2,0.3l6.8,2.8c0.3,0.1,0.5,0.3,0.5,0.6l1.6,7.1c0.1,0.2,0.3,0.3,0.5,0.2c0.1,0,0.1,0,0.1-0.1l4.7-5.6&#xA;&#9;&#9;c0.2-0.2,0.5-0.3,0.8-0.3l7.2,0.7c0.1,0,0.3-0.1,0.3-0.2c0.1-0.1,0.1-0.3,0-0.4l-3.8-6.2c-0.1-0.3-0.2-0.6-0.1-0.8l2.9-6.7&#xA;&#9;&#9;C301.6,79.4,301.6,79.3,301.5,79.2L301.5,79.2z"/>
	<path class="st1_party-71" d="M217.4,121.4c-0.3-0.4-0.6-0.9-0.7-1.4c-0.8-2.1-0.5-4.5,0.8-6.4c2.1-2.7,5.6-3.5,8.6-2.9&#xA;&#9;&#9;c-0.5-2.2-1.7-4.3-3.3-5.9c-0.3-0.3-0.6-0.5-1-0.8c-0.1,0.2-0.2,0.4-0.3,0.6c-1.4,2.4-4.6,4.4-7.5,3.2c-0.8-0.3-1.5-0.8-1.9-1.6&#xA;&#9;&#9;c-0.4-0.7-0.4-1.6-0.1-2.4c0.5-1.2,1.5-2.1,2.8-2.6c1.9-0.7,4.1-0.6,6,0.1c0.2-1.5,0.2-3.1-0.1-4.6c-1.3-7.8-6.2-14.7-13.1-18.5&#xA;&#9;&#9;c-0.4-0.3-0.4-0.9-0.1-1.2c0,0,0,0,0,0c0.2-0.2,0.6-0.4,0.9-0.3c7.5,4.1,12.6,11.4,14.1,19.8c0.3,1.9,0.3,3.8-0.1,5.7&#xA;&#9;&#9;c0.6,0.4,1.1,0.8,1.6,1.2c2.1,2.1,3.5,4.8,4.1,7.7l0.1,0.1c3,1.2,5.6,3.6,8.2,7.4c3,4.5,6.5,11.4,5.8,19.1c0,0.5-0.4,0.9-0.9,0.9&#xA;&#9;&#9;c-0.4,0-0.8-0.3-0.9-0.7c0-0.1,0-0.2,0-0.4c0.7-7.2-2.6-13.7-5.5-18c-2.2-3.2-4.3-5.2-6.5-6.4c0.3,2.2,0,4.4-0.9,6.4&#xA;&#9;&#9;c-1.1,2.3-3.9,4.4-6.9,3.8C219.2,123.3,218.1,122.5,217.4,121.4z M226.4,112.6c-2.6-0.7-5.9-0.2-7.7,2.1c-0.9,1.4-1.1,3.2-0.5,4.7&#xA;&#9;&#9;c0.4,1.2,1.4,2.1,2.6,2.4c2.1,0.4,4.1-1.2,5-2.9C226.8,117,227,114.7,226.4,112.6L226.4,112.6z M220.1,103.2&#xA;&#9;&#9;c-1.5-0.7-3.3-0.8-4.9-0.2c-0.8,0.3-1.4,0.9-1.7,1.6c-0.1,0.3-0.1,0.6,0,0.9c0.2,0.4,0.6,0.6,1,0.7c2,0.8,4.3-0.7,5.3-2.5&#xA;&#9;&#9;C220,103.5,220.1,103.4,220.1,103.2L220.1,103.2z"/>
	<path class="st8_party-71" d="M250.8,63.6c5.1-1.1,10.3,0.7,13.7,4.7l-2.7,6.5c0,0-6.2-6-12.5-4.1L250.8,63.6z"/>
	<path class="st1_party-71" d="M248.6,71.1c-0.1-0.2-0.2-0.4-0.1-0.7l1.5-7.1c0.1-0.3,0.3-0.6,0.6-0.7c5.4-1.2,11,0.7,14.6,5&#xA;&#9;&#9;c0.2,0.3,0.3,0.6,0.1,0.9l-2.7,6.5c-0.2,0.5-0.7,0.7-1.2,0.5c0,0,0,0,0,0c-0.1,0-0.2-0.1-0.2-0.2c0-0.1-5.9-5.7-11.6-4&#xA;&#9;&#9;c-0.3,0.1-0.6,0-0.8-0.2L248.6,71.1z M251.6,64.3l-1.1,5.1c4.7-0.7,9.1,2.3,11,3.8l2-4.9C260.5,65.1,256,63.6,251.6,64.3&#xA;&#9;&#9;L251.6,64.3z"/>
	<path class="st1_party-71" d="M301.4,151.2c-0.1-0.2-0.2-0.4-0.1-0.7c0.9-5.2,3.1-10.1,6.3-14.3c2.4-3.2,5.6-5.8,9.2-7.4&#xA;&#9;&#9;c1.9-4.3,5-7.9,9-10.4c4.7-2.8,9.9-4.6,15.3-5.1c0.5-0.2,1,0.1,1.2,0.6c0,0,0,0,0,0c0.2,0.5-0.1,1-0.5,1.1c0,0,0,0,0,0&#xA;&#9;&#9;c-0.1,0-0.3,0.1-0.4,0.1c-5.1,0.5-10.1,2.2-14.6,4.8c-3.2,2-5.9,4.8-7.7,8.2c4.7-1.2,9.6,0.1,12.7,3.2c1.8,1.7,2.7,4.2,2.4,6.6&#xA;&#9;&#9;c-0.3,2.1-1.4,3.9-3.1,5.2c-2.5,2.3-6,3.2-9.2,2.3c-5.4-1.7-7.5-8.7-6-14.3l0,0c-2.7,1.6-5.1,3.7-7,6.2c-3,4-5.1,8.6-6,13.5&#xA;&#9;&#9;c-0.1,0.5-0.6,0.8-1.1,0.7C301.7,151.4,301.5,151.3,301.4,151.2L301.4,151.2z M318.2,130.2c-0.2,0.5-0.3,1-0.5,1.4&#xA;&#9;&#9;c-1.2,4.7,0.4,10.7,4.8,12.1c2.7,0.6,5.5-0.1,7.5-2c1.3-1,2.2-2.5,2.5-4.1c0.2-1.9-0.6-3.9-2-5.2c-2.6-2.8-7.3-3.8-11.5-2.6&#xA;&#9;&#9;C318.8,130,318.5,130.1,318.2,130.2L318.2,130.2z"/>
	<path class="st9_party-71" d="M236.1,77.1c-0.1-0.2-0.2-0.4-0.1-0.7c0.2-1,0-2.1-0.5-3c-0.2-0.5,0.1-1,0.6-1.2c0,0,0,0,0,0&#xA;&#9;&#9;c0.3-0.1,0.7,0,0.9,0.2c0.8,1.3,1,2.8,0.7,4.2c-0.1,0.5-0.6,0.8-1.1,0.7c0,0,0,0,0,0C236.4,77.3,236.2,77.2,236.1,77.1z"/>
	<path class="st9_party-71" d="M277.1,69.4c-0.2-0.2-0.2-0.6-0.1-0.8c1-2.4,2.3-4.7,3.9-6.7c0.3-0.4,0.7-0.7,1.2-0.7c0.6,0,1,0.4,1.1,1&#xA;&#9;&#9;c0.1,0.5-0.2,1.1-0.7,1.2c-0.2,0-0.4,0-0.5,0c-1.4,1.8-2.5,3.7-3.4,5.8c-0.2,0.5-0.7,0.7-1.2,0.5C277.3,69.7,277.1,69.6,277.1,69.4&#xA;&#9;&#9;z"/>
	<path class="st9_party-71" d="M301.2,117.2c-0.2-0.5,0-1,0.4-1.2c0.3-0.2,0.7-0.1,1,0.1c0.6,0.6,1.5,0.9,2.3,0.8c0.8,0,1.6-0.4,2.1-1.1&#xA;&#9;&#9;c0,0,0-0.1,0-0.1c-0.7-0.1-1.4-0.2-2-0.5c-0.9-0.4-1.6-1.1-1.9-2c-0.4-1.1,0-2.3,0.9-3c0.7-0.4,1.5-0.4,2.3-0.1&#xA;&#9;&#9;c1.5,0.6,2.6,2,2.8,3.6c0.2,0,0.4-0.1,0.6-0.2c1.4-0.6,2.7-1.4,3.9-2.4c0.3-0.4,0.9-0.4,1.3,0c0.4,0.3,0.4,0.9,0.1,1.3&#xA;&#9;&#9;c-0.1,0.1-0.2,0.2-0.3,0.2c-1.3,1-2.8,1.9-4.3,2.5c-0.5,0.1-0.9,0.3-1.4,0.4c-0.1,0.4-0.3,0.9-0.6,1.2c-0.8,1-2,1.7-3.4,1.8&#xA;&#9;&#9;C303.6,118.7,302.2,118.2,301.2,117.2C301.2,117.2,301.2,117.2,301.2,117.2z M306.8,112.7c-0.3-0.4-0.7-0.7-1.1-0.9&#xA;&#9;&#9;c-0.3-0.1-0.5-0.1-0.8,0c-0.2,0.2-0.3,0.6-0.2,0.8c0.2,0.4,0.6,0.8,1,1c0.5,0.2,1,0.4,1.6,0.4c0-0.2-0.1-0.3-0.1-0.5&#xA;&#9;&#9;C307.1,113.2,307,112.9,306.8,112.7L306.8,112.7z"/>
	<path class="st9_party-71" d="M311.5,81.4c-0.2-0.3-0.2-0.7,0-1c1-1.4,2.4-2.4,4-2.9c0.5-0.1,0.9,0.3,1,0.8c0,0,0,0,0,0&#xA;&#9;&#9;c0,0.3-0.2,0.7-0.5,0.9c-1.2,0.4-2.3,1.1-3.1,2.2c-0.3,0.4-0.8,0.5-1.2,0.2C311.6,81.6,311.5,81.5,311.5,81.4z"/>
</g>
<g id="character_2_party-71">
	<path class="st0_party-71" d="M309.9,287.9c0,0-16.9,0.2-19.6,2.8s-5.9,7.5-5.5,10s1.8,5.5,4.3,5.2s5.1-1.1,8.2-1.1s15.3-1.2,15.3-1.2&#xA;&#9;&#9;L309.9,287.9z"/>
	<path class="st1_party-71" d="M283,301c-0.7-3.8,3.6-9.5,6-11.8c3-2.8,16.7-3.2,20.8-3.2c0.9,0,1.7,0.6,1.9,1.6l2.7,15.7&#xA;&#9;&#9;c0.1,0.5,0,1.1-0.4,1.5c-0.3,0.4-0.8,0.7-1.3,0.7c-0.5,0-12.3,1.2-15.5,1.2c-1.6,0-3.2,0.2-4.8,0.6c-1.1,0.2-2.1,0.4-3.2,0.5&#xA;&#9;&#9;c-0.6,0.1-1.2,0-1.8-0.2C285.3,306.9,283.6,304.5,283,301z M308.3,289.8c-7.4,0.2-15.5,1.1-16.7,2.2c-2.8,2.5-5.1,6.9-4.9,8.3&#xA;&#9;&#9;c0.3,1.9,1.3,3.8,2.3,3.7c0.9-0.1,1.8-0.3,2.8-0.5c1.8-0.4,3.6-0.6,5.5-0.7c2.2,0,9.5-0.6,13.1-1L308.3,289.8z"/>
	<path class="st1_party-71" d="M391.5,322.5c-11.6,1.8-23.4-2.1-31.6-10.5l7-25.1l33.1,5.1C400.1,292,411.4,319.5,391.5,322.5z"/>
	<path class="st1_party-71" d="M407.6,418.2l15-18.9c-30.2-22.1-48.5-39.1-51-46.8c-2-6.2,17.4-32.2,24.9-58.4l-39.4-3.3&#xA;&#9;&#9;c-3.8,13.2-11.3,58.4-5.7,75.8C356.9,383.1,394.7,408.2,407.6,418.2z"/>
	<path class="st1_party-71" d="M406.5,419.7c-2.2-1.7-5.2-3.9-8.7-6.5c-17.3-12.7-43.4-31.8-48-46c-6-18.4,2.3-65.2,5.6-76.9&#xA;&#9;&#9;c0.3-0.9,1.1-1.4,2-1.4l39.4,3.3c0.6,0,1.1,0.3,1.4,0.8c0.3,0.5,0.4,1,0.3,1.6c-4,13.8-11.1,27.4-16.9,38.4&#xA;&#9;&#9;c-4.3,8.2-8.8,16.7-8,18.9c2.4,7.5,21.3,24.6,50.4,45.9c0.4,0.3,0.7,0.8,0.8,1.3c0.1,0.5-0.1,1-0.4,1.4l-15,18.9&#xA;&#9;&#9;c-0.4,0.5-0.9,0.7-1.5,0.7C407.2,420.1,406.8,419.9,406.5,419.7z M369.8,353c-1.2-3.6,1.9-9.6,8.3-21.8&#xA;&#9;&#9;c5.4-10.2,11.9-22.7,15.9-35.4l-35.5-3c-3.7,14.4-10.5,57-5.3,73.2c4.2,13,30.8,32.5,46.7,44.1c2.8,2,5.3,3.9,7.3,5.4l12.6-15.9&#xA;&#9;&#9;C402.1,386.5,373.4,364.1,369.8,353z"/>
	<polygon class="st1_party-71" points="368.3,427.3 412.8,299.5 392.4,286 344.6,422.1 &#9;"/>
	<path class="st1_party-71" d="M367.9,429.1l-23.7-5.1c-0.5-0.1-1-0.5-1.2-0.9c-0.3-0.5-0.3-1-0.1-1.5l47.8-136.1c0.2-0.5,0.6-1,1.2-1.2&#xA;&#9;&#9;c0.5-0.2,1.2-0.1,1.6,0.2l20.5,13.5c0.7,0.5,1,1.4,0.8,2.2L370,427.9c-0.3,0.8-1,1.3-1.8,1.3C368.1,429.2,368,429.2,367.9,429.1z&#xA;&#9;&#9; M393.4,288.9l-46.3,131.8l20,4.4l43.5-124.9L393.4,288.9z"/>
	<path class="st6_party-71" d="M354.7,235.3c5.2-9.3,7.4-13.3,16.1-13.3h23.9c10,0,18.2,8.1,18.2,18.2c0,0,0,0,0,0v59.3h-60.2v-19.8&#xA;&#9;&#9;c-11.2,13.4-26,25.4-44.3,28l-3.4-24C328.5,280.3,346,251,354.7,235.3z"/>
	<path class="st1_party-71" d="M307.1,309.2c-0.4-0.3-0.7-0.7-0.7-1.2l-3.4-24c-0.1-0.5,0.1-1,0.4-1.4c0.3-0.4,0.7-0.7,1.2-0.7&#xA;&#9;&#9;c24.2-3.5,42.5-36.6,48.5-47.4l0,0l0.1-0.3c5.2-9.3,7.9-14,17.6-14h23.9c11.1,0,20.1,9,20.1,20.1v59.3c0,1-0.8,1.9-1.9,1.9l0,0&#xA;&#9;&#9;h-60.2c-1,0-1.9-0.8-1.9-1.9v-14.8c-13,14.3-27.2,22.7-42.2,24.8h-0.3C307.9,309.6,307.5,309.4,307.1,309.2z M353.2,277.9&#xA;&#9;&#9;c0.7,0.3,1.2,1,1.2,1.8v17.9H411v-57.4c0-9-7.3-16.3-16.3-16.3h-23.9c-7.5,0-9.2,3-14.3,12.1l-0.1,0.2c-6.1,11-24.2,44-49.4,49&#xA;&#9;&#9;l2.9,20.3c14.6-2.6,28.5-11.7,41.3-27c0.4-0.4,0.9-0.7,1.5-0.7C352.8,277.8,353,277.9,353.2,277.9z"/>
	<path class="st1_party-71" d="M352.7,284.1c1,0,1.9-0.8,1.9-1.9v-29.2c-0.1-1-1-1.8-2-1.7c-0.9,0.1-1.7,0.8-1.7,1.7v29.2&#xA;&#9;&#9;C350.8,283.3,351.7,284.1,352.7,284.1z"/>
	<path class="st3_party-71" d="M389,115c-3.7-0.5-7.4-0.7-11.1-0.6c-10.9,0.3-23.6,5.7-29.8,15.3c-1.4,2.4-2.6,4.9-3.5,7.4&#xA;&#9;&#9;c-1.8,4.8-1.3,6,0.3,10.2c1.7,4.4,1,9.7,1.1,14.3c0.1,6.3,0.3,12.5,0.4,18.8c0.3,12.3,0.5,24.6,0.8,36.9c15,2.3,30.1,2.3,45.3,2.2&#xA;&#9;&#9;c14.4-0.1,28.9-0.3,43.3-0.6c1.6,0,3.4-0.2,4.2-1.6c0.3-0.7,0.4-1.4,0.3-2.2l-0.5-31c-0.1-7.1-0.2-14.3-1-21.4&#xA;&#9;&#9;c-0.4-4.3-1.3-8.6-2.8-12.7c-1.7-4.6-4.5-8.8-7.2-13c-1.9-3.1-4.1-6-6.7-8.6c-2.4-2.2-5.2-4-8.1-5.4&#xA;&#9;&#9;C406.2,118.9,397.7,116.2,389,115z"/>
	<path class="st1_party-71" d="M385,221.1c-13.3,0-25.7-0.4-38-2.3l-1.2-0.2v-1.3c-0.3-12.3-0.5-24.6-0.8-36.9l-0.4-18.8c0-1.2,0-2.4,0-3.6&#xA;&#9;&#9;c0.1-3.5,0.2-7.1-1-10.2c-1.7-4.4-2.3-6-0.3-11.3c0.9-2.7,2.1-5.3,3.6-7.7c6.8-10.6,20.4-15.6,31-16c3.8-0.1,7.6,0.1,11.4,0.6&#xA;&#9;&#9;c8.9,1.2,17.5,4,25.5,8.1c3.1,1.5,5.9,3.4,8.5,5.7c2.7,2.7,5,5.7,6.9,8.9c2.7,4.2,5.5,8.4,7.4,13.3c1.5,4.2,2.4,8.6,2.8,13.1&#xA;&#9;&#9;c0.8,7.2,0.9,14.5,1,21.6l0.5,31c0.1,1-0.1,2-0.5,2.9c-1.2,2.3-4.2,2.4-5.5,2.4c-14.3,0.3-28.9,0.5-43.3,0.6L385,221.1z&#xA;&#9;&#9; M348.6,216.1c14,2,28.1,2.1,43.8,2c14.4-0.1,29-0.3,43.3-0.6c0.6,0,2.5,0,2.9-0.8c0.2-0.5,0.2-1,0.2-1.4l-0.5-31&#xA;&#9;&#9;c-0.1-7-0.2-14.2-1-21.3c-0.4-4.2-1.3-8.4-2.6-12.4c-1.7-4.5-4.4-8.7-7-12.7c-1.8-3-4-5.8-6.5-8.3c-2.4-2.1-5-3.8-7.8-5.2&#xA;&#9;&#9;c-7.6-4-15.9-6.7-24.5-7.8c-3.6-0.5-7.3-0.7-10.9-0.6c-9.8,0.3-22.4,5-28.5,14.6c-1.3,2.3-2.5,4.7-3.3,7.2&#xA;&#9;&#9;c-1.6,4.2-1.3,5.1,0.3,9.2c1.4,3.6,1.3,7.5,1.2,11.3c0,1.2,0,2.4,0,3.5l0.4,18.8C348.2,192.4,348.4,204.2,348.6,216.1L348.6,216.1z&#xA;&#9;&#9;"/>
	<path class="st0_party-71" d="M383.9,232h-7.2c-1.6,0-3-1.3-3-2.9c0,0,0,0,0,0v-10.2l0,0h13.1l0,0V229C386.8,230.6,385.5,232,383.9,232z"/>
	<path class="st1_party-71" d="M371.9,226.4v-7.5c0-1,0.8-1.9,1.9-1.9l0,0h13.1c1,0,1.9,0.9,1.9,1.9v7.5c0,4.1-3.3,7.4-7.4,7.4h-2&#xA;&#9;&#9;C375.2,233.8,371.9,230.5,371.9,226.4z M375.6,220.8v5.6c0,2,1.6,3.7,3.7,3.7l0,0h2c2,0,3.7-1.6,3.7-3.7l0,0v-5.6H375.6z"/>
	<ellipse class="st0_party-71" cx="346.4" cy="186.3" rx="9.8" ry="10.9"/>
	<path class="st1_party-71" d="M334.8,186.3c0-7.1,5.2-12.8,11.7-12.8s11.7,5.8,11.7,12.8s-5.2,12.8-11.7,12.8S334.8,193.4,334.8,186.3z&#xA;&#9;&#9; M338.5,186.3c0,5,3.5,9.1,7.9,9.1s7.9-4.1,7.9-9.1s-3.5-9.1-7.9-9.1S338.5,181.3,338.5,186.3z"/>
	<path class="st0_party-71" d="M380.7,222c21.5,0,40.7-26.5,40.7-47.7l-5.1,1.9l0.2-15c0,0-26.9-7.1-23.4-19.6c0,0-7.9,9.4-19.2,9.4&#xA;&#9;&#9;c-20.9,0-29-5.6-29-5.6v38.3C344.8,204.8,359.2,222,380.7,222z"/>
	<path class="st1_party-71" d="M342.9,183.7v-38.3c0-1,0.9-1.9,1.9-1.9c0.4,0,0.7,0.1,1,0.3c0.1,0,8.1,5.2,28,5.3h0c10.3,0,17.7-8.6,17.8-8.7&#xA;&#9;&#9;c0.7-0.8,1.8-0.9,2.6-0.2c0.6,0.5,0.8,1.3,0.6,2c-0.5,1.7-0.2,3.6,0.7,5.1c4.4,7.6,21.2,12.2,21.4,12.2c0.8,0.2,1.4,1,1.4,1.8&#xA;&#9;&#9;l-0.1,12.2h2.5c1-0.4,2.1,0.1,2.4,1.1c0.1,0.2,0.1,0.4,0.1,0.7c0,21.9-20.1,48.6-42.6,48.6C358.8,223.8,342.9,206.9,342.9,183.7z&#xA;&#9;&#9; M417,178c-1,0.4-2-0.1-2.4-1.1c-0.1-0.2-0.1-0.5-0.1-0.7l0.2-13.5c-4.5-1.4-17.9-5.9-22.2-13.6c-0.5-0.9-0.9-1.9-1.2-3&#xA;&#9;&#9;c-3.5,2.9-9.6,6.8-17.2,6.8h-0.1c-14.5,0-23-2.7-27.1-4.4v35.2c0,21.1,14.3,36.4,34,36.4c16.5,0,37.2-20,38.8-43L417,178z"/>
	<ellipse class="st1_party-71" cx="390.4" cy="178.9" rx="3.5" ry="3.5"/>
	<circle class="st1_party-71" cx="356.2" cy="178.9" r="3.5"/>
	<path class="st1_party-71" d="M371.5,189.4c1.2,0,2.4-0.1,3.6-0.3c1-0.2,1.7-1.2,1.5-2.2c-0.2-1-1.2-1.7-2.2-1.5c-1.4,0.2-2.9,0.3-4.3,0.2&#xA;&#9;&#9;c0.6-2.6,1.6-5.1,2.9-7.4c0.5-0.9,0.1-2.1-0.8-2.5c-0.9-0.5-2.1-0.1-2.5,0.8l0,0c-1.6,3.1-4.1,8.6-3,11.1c0.3,0.8,1,1.3,1.8,1.5&#xA;&#9;&#9;C369.5,189.3,370.5,189.4,371.5,189.4z"/>
	<path class="st1_party-71" d="M403.5,173.2c2.1,0,3.8-1.6,3.8-3.7c0-1.8-1.3-3.4-3.1-3.7l-16.6-3.2c-2.1-0.3-4,1.1-4.3,3.1&#xA;&#9;&#9;c-0.3,2,0.9,3.9,2.9,4.3l16.6,3.2C403,173.2,403.3,173.2,403.5,173.2z"/>
	<path class="st1_party-71" d="M352.6,170.1h0.2l16.9-0.8c2.1-0.1,3.7-1.8,3.6-3.9c-0.1-2.1-1.8-3.7-3.9-3.6l-16.9,0.8&#xA;&#9;&#9;c-2.1,0-3.7,1.8-3.7,3.8C348.8,168.5,350.5,170.1,352.6,170.1L352.6,170.1z"/>
	<path class="st0_party-71" d="M413.7,177c0,0,9.4-6.5,14.4,1.9s0.2,22.5-15.3,18.4"/>
	<path class="st1_party-71" d="M418,199.9c4.3,0.2,8.4-1.7,11.1-5.1c3.5-5,3.8-11.6,0.6-16.8c-1.4-2.5-3.8-4.3-6.5-4.9&#xA;&#9;&#9;c-5.2-1.1-10.3,2.4-10.5,2.5c-0.9,0.6-1.1,1.8-0.5,2.6c0.6,0.9,1.8,1.1,2.6,0.5l0,0c0,0,4-2.7,7.6-1.9c1.8,0.4,3.2,1.6,4.1,3.2&#xA;&#9;&#9;c2.3,3.9,2.2,8.9-0.4,12.6c-2.6,3.4-7.1,4.5-12.8,3c-1-0.3-2,0.3-2.3,1.3c-0.3,1,0.3,2,1.3,2.3l0,0&#xA;&#9;&#9;C414.2,199.6,416.1,199.8,418,199.9z"/>
	<path class="st1_party-71" d="M375.8,205.9c1.3,0,2.6-0.1,3.9-0.4c5-1.2,9.2-4.6,12.3-10.2c0.5-0.9,0.2-2.1-0.7-2.6s-2.1-0.2-2.6,0.7&#xA;&#9;&#9;c-2.6,4.6-5.9,7.5-9.9,8.4c-6.7,1.6-13.2-2.8-13.2-2.8c-0.9-0.6-2-0.4-2.6,0.5c-0.6,0.9-0.4,2,0.5,2.6&#xA;&#9;&#9;C367.2,204.4,371.4,205.7,375.8,205.9z"/>
	<path class="st2_party-71 targetColor" d="M368.3,427.3l-5,15.1l-39.4-13c-0.7-0.2-1.1-1-0.9-1.7c0.1-0.4,0.5-0.8,1-0.9l23-5.8L368.3,427.3z" style="fill: rgb(68, 176, 255);"/>
	<path class="st1_party-71" d="M362.7,444.2l-39.4-13c-1.7-0.5-2.6-2.4-2.1-4c0.3-1.1,1.2-1.9,2.3-2.1l23-5.8c0.3-0.1,0.7-0.1,1,0l21.4,6.2&#xA;&#9;&#9;c1,0.3,1.6,1.3,1.3,2.3c0,0,0,0,0,0.1L365,443c-0.3,0.8-1,1.3-1.8,1.3C363,444.3,362.8,444.2,362.7,444.2z M346.9,423l-20.6,5.2&#xA;&#9;&#9;l35.8,11.8l3.8-11.5L346.9,423z"/>
	<path class="st2_party-71 targetColor" d="M422.6,399.3l12,10.9l-28.9,30.2c-0.4,0.4-1,0.3-1.4-0.1c-0.2-0.2-0.3-0.4-0.3-0.7l2.4-24.7L422.6,399.3z" style="fill: rgb(68, 176, 255);"/>
	<path class="st1_party-71" d="M403.8,442.3c-1.1-0.5-1.8-1.7-1.6-2.9l2.4-24.7c0-0.4,0.2-0.9,0.6-1.2l16.2-15.6c0.7-0.7,1.9-0.7,2.6,0&#xA;&#9;&#9;l12,10.9c0.8,0.7,0.8,1.9,0.1,2.7c0,0,0,0,0,0l-29,30.1c-0.5,0.5-1.2,0.9-2,0.9C404.6,442.6,404.1,442.5,403.8,442.3z M422.7,401.9&#xA;&#9;&#9;l-14.4,13.9l-2.1,21.4l25.8-26.9L422.7,401.9z"/>
	<path class="st4_party-71" d="M358.8,378.5c0.4,0,0.7-0.3,0.9-0.6l25.5-72.7c0.2-0.5,0-1-0.5-1.2s-1,0-1.2,0.5c0,0,0,0,0,0.1L358,377.2&#xA;&#9;&#9;c-0.2,0.5,0.1,1,0.6,1.2c0,0,0,0,0,0C358.7,378.5,358.8,378.5,358.8,378.5z"/>
	<path class="st6_party-71" d="M399.2,222.5c0,0,49,12.2,55.7,16.6s-5.6,42.7-5.6,42.7l-17.4-2l2.9-26l-31.6-4.1"/>
	<path class="st1_party-71" d="M449.4,283.3h-0.2l-17.4-2c-0.8-0.1-1.4-0.8-1.3-1.7l2.8-24.6l-30.1-3.9c-0.8-0.1-1.4-0.9-1.3-1.7&#xA;&#9;&#9;s0.9-1.4,1.7-1.3l31.5,4.2c0.8,0.1,1.4,0.8,1.3,1.7l-2.8,24.5l14.7,1.7c5.5-17.6,9.3-37.6,5.8-39.8c-5.3-3.5-41.7-13-55.3-16.4&#xA;&#9;&#9;c-0.8-0.2-1.3-1-1.1-1.8s1-1.3,1.8-1.1l0,0c2,0.5,49.3,12.3,56.2,16.8c2.2,1.4,4.6,5.5,0.4,24.6c-2.2,10.1-5.3,19.8-5.3,19.9&#xA;&#9;&#9;C450.6,282.9,450,283.3,449.4,283.3z"/>
	<path class="st0_party-71" d="M436.2,280.1c-2.5,3.1-4.7,6.4-6.7,9.8c-0.6,1.1-1.2,2.5-0.5,3.6c0.6,0.7,1.5,1.1,2.4,0.9&#xA;&#9;&#9;c0.9-0.2,1.7-0.6,2.4-1.1c0.4,2.9-2.8,5.5-1.9,8.3c0.7,1.7,2.4,2.7,4.2,2.5c1.8-0.2,3.5-0.8,5-1.7c2.1-1.1,4.4-2.3,5.6-4.3&#xA;&#9;&#9;c1.4-2.2,1.3-5.1,0.9-7.7s-1.3-5.1-1.3-7.8"/>
	<path class="st1_party-71" d="M436,305.7c-2.2,0-4.8-1.2-5.5-3.6c-0.6-2,0.2-3.8,1-5.4l0.4-0.8h-0.2c-1.5,0.3-3-0.3-3.9-1.5&#xA;&#9;&#9;c-1.3-2,0-4.4,0.5-5.1c2-3.5,4.3-6.8,6.8-10c0.5-0.7,1.4-0.8,2.1-0.3s0.8,1.4,0.3,2.1c0,0-0.1,0.1-0.1,0.1&#xA;&#9;&#9;c-2.4,3.1-4.6,6.3-6.6,9.6c-0.8,1.4-0.7,1.9-0.6,2c0.2,0.2,0.6,0.3,0.9,0.2c0.7-0.2,1.3-0.5,1.8-0.9c0.7-0.4,1.6-0.2,2.1,0.5&#xA;&#9;&#9;c0.1,0.2,0.2,0.4,0.2,0.6c0.1,1.7-0.3,3.3-1.2,4.8c-0.6,1.3-1.1,2.4-0.8,3.3s1.7,1.5,2.8,1.5c1.5-0.2,3-0.7,4.4-1.5&#xA;&#9;&#9;c1.8-0.9,3.9-2,5-3.8c1-1.5,1.2-3.7,0.6-6.6c-0.1-0.8-0.3-1.5-0.5-2.3c-0.5-1.9-0.8-3.8-0.8-5.7c0-0.8,0.7-1.5,1.5-1.5c0,0,0,0,0,0&#xA;&#9;&#9;l0,0c0.8,0,1.5,0.7,1.5,1.5c0.1,1.7,0.3,3.4,0.8,5.1c0.2,0.8,0.4,1.6,0.5,2.4c0.7,3.6,0.3,6.5-1,8.7c-1.5,2.5-4.1,3.8-6.2,4.9&#xA;&#9;&#9;c-1.7,1-3.6,1.7-5.6,1.9L436,305.7z"/>
</g>
</svg>