<svg version="1.1" id="Layer_1" xmlns="http://www.w3.org/2000/svg" xmlns:xlink="http://www.w3.org/1999/xlink" x="0px" y="0px" viewBox="0 0 500 500" style="width: 183px;" xml:space="preserve" data-imageid="reminder-note-44" imageName="Reminder Note" class="illustrations_image">
<style type="text/css">
	.st0_reminder-note-44{fill:#68E1FD;}
	.st1_reminder-note-44{fill:#093F68;}
	.st2_reminder-note-44{fill:#FFFFFF;}
	.st3_reminder-note-44{fill:#DFEAEF;}
	.st4_reminder-note-44{fill:#FFC9B0;}
	.st5_reminder-note-44{fill:#725858;}
	.st6_reminder-note-44{fill:#F56132;}
	.st7_reminder-note-44{fill:#FFBC0E;}
</style>
<g id="note-2_reminder-note-44">
	<polygon class="st0_reminder-note-44 targetColor" points="322.9,365 87.3,320.1 131.2,89.4 414.2,143.3 379.2,327.2 &#9;" style="fill: rgb(68, 176, 255);"/>
	<path class="st1_reminder-note-44" d="M322.9,367.1h-0.5L87,322.3c-1.2-0.2-1.9-1.3-1.8-2.5L129.1,89c0.3-1.1,1.3-1.9,2.5-1.8l283,53.9&#xA;&#9;&#9;c1.2,0.2,1.9,1.3,1.8,2.5l0,0l-35,184.1c-0.1,0.6-0.5,1.1-1,1.4l-56.3,37.8C323.8,367,323.4,367.1,322.9,367.1z M89.9,318.5&#xA;&#9;&#9;l232.5,44.2l54.7-36.7l34.4-181L133,92L89.9,318.5z"/>
</g>
<g id="note-1_reminder-note-44">
	<polygon class="st2_reminder-note-44" points="399.6,349.9 160.3,365 145.6,130.6 433.1,112.4 444.8,299.5 &#9;"/>
	<path class="st1_reminder-note-44" d="M160.3,367.1c-1.1,0-2.1-0.9-2.1-2l-14.7-234.5c-0.1-0.6,0.2-1.2,0.6-1.6c0.4-0.5,0.9-0.7,1.5-0.7l287.5-18.2&#xA;&#9;&#9;c1.1-0.1,2.1,0.7,2.3,1.8c0,0.1,0,0.1,0,0.2l0,0l11.8,187c0.1,0.6-0.2,1.2-0.6,1.5l-45.1,50.5c-0.3,0.4-0.9,0.7-1.4,0.7&#xA;&#9;&#9;L160.3,367.1L160.3,367.1z M147.9,132.6l14.5,230l236.2-14.8l43.9-49.1l-11.6-183.8L147.9,132.6z"/>
	<polygon class="st0_reminder-note-44 targetColor" points="399.6,349.9 397.6,302.4 444.8,299.5 &#9;" style="fill: rgb(68, 176, 255);"/>
	<path class="st1_reminder-note-44" d="M399.6,352c-0.2,0-0.5,0-0.7-0.1c-0.8-0.2-1.4-1-1.4-1.9l-2.1-47.5c0-1.2,0.8-2.1,2-2.3l47.2-3&#xA;&#9;&#9;c1.1-0.1,2.1,0.7,2.3,1.8c0,0.1,0,0.1,0,0.2c0.1,0.6-0.2,1.2-0.6,1.5l-45.1,50.5C400.8,351.8,400.2,352.1,399.6,352z M399.9,304.4&#xA;&#9;&#9;l1.8,40l38-42.5L399.9,304.4z"/>
	<path class="st3_reminder-note-44" d="M190.4,176.1c-1.2,0-2.2-1.1-2.1-2.3c0-1.1,0.9-2,2-2.1l197.4-12.5c1.1-0.1,2.1,0.7,2.2,1.9c0,0,0,0.1,0,0.1&#xA;&#9;&#9;c0.1,1.2-0.8,2.2-2,2.3L190.4,176l0,0V176.1z"/>
	<path class="st3_reminder-note-44" d="M192.7,213.8c-1.2-0.1-2.1-1.1-2.1-2.3c0-1.1,0.9-2,2-2.1L390,196.9c1.2-0.1,2.2,0.8,2.3,2&#xA;&#9;&#9;c0.1,1.2-0.8,2.2-2,2.3l-197.4,12.5h-0.1V213.8z"/>
	<path class="st3_reminder-note-44" d="M195.1,251.5c-1.2,0-2.2-1-2.1-2.2c0-1.1,0.9-2,2-2.1l197.4-12.5c1.2,0,2.2,0.9,2.2,2.1c0,1.1-0.8,2-1.9,2.2&#xA;&#9;&#9;l0,0l-197.4,12.5h-0.1V251.5z"/>
	<path class="st3_reminder-note-44" d="M197.5,289.1c-1.2,0-2.2-1.1-2.1-2.3c0-1.1,0.9-2,2-2.1l197.4-12.3c1.1-0.1,2.1,0.7,2.3,1.8c0,0.1,0,0.1,0,0.2&#xA;&#9;&#9;c0.1,1.2-0.8,2.2-2,2.3l0,0L197.6,289h-0.1V289.1z"/>
	<path class="st3_reminder-note-44" d="M199.8,326.9c-1.2,0.1-2.3-0.8-2.4-2c-0.1-1.2,0.8-2.3,2-2.4c0.1,0,0.2,0,0.3,0l0,0l138.2-8.7&#xA;&#9;&#9;c1.1-0.1,2.1,0.7,2.3,1.8c0,0.1,0,0.1,0,0.2c0.1,1.2-0.8,2.2-2,2.3l0,0L200,326.8h-0.1L199.8,326.9z"/>
</g>
<g id="character-1_reminder-note-44">
	<ellipse class="st4_reminder-note-44" cx="102.7" cy="277.2" rx="15.3" ry="13.2"/>
	<path class="st1_reminder-note-44" d="M102.7,292.5c-9.6,0-17.4-6.9-17.4-15.3s7.8-15.2,17.4-15.2s17.4,6.8,17.4,15.2S112.3,292.5,102.7,292.5z&#xA;&#9;&#9; M102.7,266.1c-7.3,0-13.3,5-13.3,11.1s6,11.1,13.3,11.1s13.3-5,13.3-11.1S110,266.1,102.7,266.1z"/>
	<path class="st4_reminder-note-44" d="M168.3,220.6c13.1,22.6,22.1,9.8,24.8,5.3V274c0,24-18.3,43.9-42.2,46v10c0,4.4-3.5,7.9-7.9,7.9&#xA;&#9;&#9;c-4.2,0-7.6-3.2-7.9-7.3v-9.9c-28-1-41.7-25.2-41.7-46.6l7.2-42.8C100.7,231.3,119.1,245.6,168.3,220.6z"/>
	<path class="st1_reminder-note-44" d="M143.1,339.9c-5.5,0-9.9-4.4-10-9.9v-7.3c-12.2-0.7-23.5-6.7-30.9-16.4c-7-9.3-10.8-20.6-10.8-32.2v-0.3&#xA;&#9;&#9;l7.2-42.8c0.1-0.7,0.6-1.3,1.3-1.6c0.7-0.3,1.4-0.1,2,0.3c0.2,0.1,18.3,13,65.4-10.9c1-0.5,2.2-0.2,2.7,0.8c4.5,7.8,9,11.9,12.8,12&#xA;&#9;&#9;h0.1c2.9,0,5.7-2.2,8.4-6.6c0.5-1,1.8-1.3,2.7-0.7c0,0,0,0,0.1,0c0.6,0.4,1,1,1,1.7v48.1c-0.1,24.3-18.1,44.7-42.2,47.9v8&#xA;&#9;&#9;C152.9,335.5,148.5,339.9,143.1,339.9z M95.6,274.2c0.1,21.4,13.7,43.4,39.7,44.4c1.1,0,2,0.9,2,2c0,0,0,0.1,0,0.1v9.3&#xA;&#9;&#9;c0.2,3.2,3,5.7,6.2,5.5c3-0.2,5.3-2.5,5.5-5.5v-9.9c-0.1-1.1,0.8-2,1.9-2.1c0,0,0,0,0,0c22.8-2.1,40.2-21.1,40.3-44v-42&#xA;&#9;&#9;c-2.1,2.3-5.1,3.6-8.2,3.7c-5.1-0.1-10.3-4.2-15.4-12.3c-38.7,19.1-58.5,14.2-65.3,11.1L95.6,274.2z"/>
	<path class="st1_reminder-note-44" d="M117.4,449.4c-1.2,0-2.1-0.9-2.1-2.1V357c0.1-1.1,1.1-2,2.2-1.9c1,0.1,1.8,0.9,1.9,1.9v90.2&#xA;&#9;&#9;c0.1,1.1-0.6,2-1.7,2.1C117.6,449.4,117.5,449.4,117.4,449.4z"/>
	<path class="st4_reminder-note-44" d="M241.4,368.8c1.8-3.2,3.2-6.6,4.1-10.2c1.8-6.9,4.6-12.4,7.8-10.9c1.9,0.9-0.8,10-0.8,10s5.9-12.3,10.5-11.4&#xA;&#9;&#9;s10.8,8.1,8.3,12.3s-12.7,21.9-12.7,21.9L241.4,368.8z"/>
	<path class="st1_reminder-note-44" d="M258.7,382.5c-0.4,0-0.8-0.1-1.1-0.4l-17.3-11.6c-0.9-0.6-1.2-1.9-0.6-2.8c1.7-3.1,3-6.3,3.9-9.7&#xA;&#9;&#9;c1.8-6.8,4.1-10.9,6.8-12.2c1.2-0.6,2.7-0.6,3.9,0c1,0.5,1.7,1.5,1.8,2.6c2.2-2.6,4.8-4.7,7.5-4.2c3.6,0.6,7.8,4.2,9.6,8.2&#xA;&#9;&#9;c1.2,2.2,1.2,4.9,0.1,7.2c-2.5,4.2-12.6,21.6-12.7,21.8c-0.3,0.5-0.8,0.9-1.3,1C259.1,382.5,258.9,382.5,258.7,382.5z M244.1,368.2&#xA;&#9;&#9;l13.9,9.3c2.7-4.7,9.6-16.6,11.6-20c0.6-1.1,0.1-2.5-0.3-3.4c-1.2-2.7-4.3-5.5-6.6-5.9c-1.6-0.3-5.6,4.6-8.3,10.3&#xA;&#9;&#9;c-0.5,1-1.8,1.4-2.8,0.9c-0.9-0.5-1.3-1.5-1.1-2.4c0.7-2.4,1.2-5,1.4-7.5c-1.1,0.7-2.9,3.5-4.4,9.5&#xA;&#9;&#9;C246.7,362.2,245.6,365.3,244.1,368.2z"/>
	<path class="st0_reminder-note-44 targetColor" d="M258.7,380.4c-4.3,16.6-17,33.1-35.3,33.1c-1.6,0-3.2-0.1-4.8-0.4c-8.2-1.3-15.9-4.8-22.3-10.2v44.4h-95.7V351&#xA;&#9;&#9;c0-9.7,7.9-17.6,17.6-17.6h56.4c5.6,0,18.6,3.2,24.5,16.3c4.2,9.4,17.5,35,24.1,32.9s15.8-14.3,15.8-14.3L258.7,380.4z" style="fill: rgb(68, 176, 255);"/>
	<path class="st1_reminder-note-44" d="M196.3,449.4h-95.7c-1.2,0-2.1-0.9-2.1-2.1V351c0-10.8,8.8-19.6,19.6-19.7h56.4c6.4,0,20.1,3.7,26.4,17.5&#xA;&#9;&#9;c7.9,17.4,18.4,32.8,21.6,31.7c4.9-1.6,12.4-10.3,14.8-13.5c0.6-0.9,1.8-1.1,2.7-0.5l19.7,12.1c0.8,0.5,1.2,1.4,0.9,2.3&#xA;&#9;&#9;c-4.4,17.2-17.7,34.7-37.3,34.7c-1.7,0-3.4-0.1-5.1-0.4c-7.2-1.1-14-3.9-19.9-8.1v40.2c0.1,1.1-0.8,2-1.8,2&#xA;&#9;&#9;C196.4,449.4,196.4,449.4,196.3,449.4z M102.7,445.3h91.6V403c0-1.1,0.8-2,1.9-2.1c0.5,0,1,0.2,1.4,0.5c6.1,5.1,13.5,8.5,21.3,9.8&#xA;&#9;&#9;c1.5,0.2,3,0.3,4.5,0.4c16.8,0,28.5-14.9,32.9-30.1l-16.8-10.3c-2.8,3.5-9.9,11.6-15.7,13.5c-9.3,3.1-23.8-27.8-26.6-34&#xA;&#9;&#9;c-4.1-8.9-12.8-14.7-22.6-15.1h-56.4c-8.6,0-15.5,6.9-15.5,15.5L102.7,445.3z"/>
	<path class="st1_reminder-note-44" d="M196.3,405c-1.2,0-2.1-0.9-2.1-2.1v-26.1c0-1.1,0.9-2.1,2-2.1c1,0,1.9,0.8,2.1,1.8V403&#xA;&#9;&#9;C198.3,404.1,197.4,405,196.3,405z"/>
	<path class="st5_reminder-note-44" d="M195.2,244.5c-0.2,0.1-0.4,0.3-0.6,0.4c-3.2,1.9-9.9,1.8-13.6,2.5c-8.4,8.2-4.3,21.8-9.3,31.6&#xA;&#9;&#9;c-5.2,10.1-11.7,15.4-5.5,27.4c2.2,4.3,5.2,8.3,6.8,12.9c4.3,12.5-2.7,26.7-13.6,34.2c-16.8,11.6-38,8.3-57.2,9.6&#xA;&#9;&#9;c-16.2,1.1-37.3-0.8-46.6-16.2c-5.5-9.1-3.5-21.8,4-29.4c3.4-3.4,7.9-6.4,8.4-11.2c0.3-3.2-1.4-6.1-2.7-9&#xA;&#9;&#9;c-3.2-7.3-3.9-16.4,1.2-22.6c2.2-2.6,5.1-4.3,7.8-6.5c8.7-7.2,8.9-13.7,8.9-23.6c-0.1-13.6,7.5-35.3,18.7-43.7&#xA;&#9;&#9;c6.3-4.8,15.3-6.6,22.4-3c2.2-4.2,6.5-6.9,11-8.1c14.7-4.1,30.7-4.8,43.6,4.7c12.7,9.3,18.1,26.2,18.1,41.5&#xA;&#9;&#9;C196.9,239.4,197.4,242.7,195.2,244.5z"/>
	<path class="st1_reminder-note-44" d="M94.9,365.5c-20,0-34.1-6-41.1-17.4c-5.9-9.7-4-23.4,4.3-31.9c0.7-0.8,1.5-1.5,2.3-2.2&#xA;&#9;&#9;c2.7-2.5,5.2-4.8,5.5-7.7c0.2-2.1-0.8-4.3-1.9-6.6c-0.2-0.4-0.4-0.9-0.6-1.3c-3.2-7.3-4.5-17.6,1.5-24.7c1.6-1.8,3.5-3.4,5.5-4.8&#xA;&#9;&#9;c0.9-0.6,1.7-1.2,2.5-1.9c7.9-6.5,8.2-12,8.1-22c-0.1-14.4,7.8-36.6,19.5-45.4c6.9-5.1,15.8-6.6,22.8-4c2.8-3.7,6.8-6.4,11.3-7.5&#xA;&#9;&#9;c18.5-5.2,33.8-3.5,45.4,5c11.8,8.7,18.9,24.8,18.9,43.1v1.6c0.1,2.9,0.2,6.3-2.5,8.5l0,0c-0.3,0.2-0.5,0.4-0.8,0.6&#xA;&#9;&#9;c-2.6,1.5-6.7,1.9-10.3,2.3c-1.1,0.1-2.3,0.2-3.4,0.4c-3.9,4.2-4.5,10-5.1,16.2c-0.5,4.9-1,10-3.3,14.5c-1.1,2.1-2.2,3.9-3.2,5.7&#xA;&#9;&#9;c-4,6.8-6.7,11.2-2.2,19.8c0.7,1.4,1.6,2.8,2.4,4.2c1.8,2.8,3.3,5.9,4.5,9c4.8,14.2-3.6,29.1-14.3,36.6&#xA;&#9;&#9;c-13.4,9.3-29.2,9.4-44.6,9.6c-4.5,0-9.2,0.1-13.7,0.4C99.7,365.4,97.3,365.5,94.9,365.5z M115.9,198.3c-4.7,0.1-9.2,1.6-12.9,4.5&#xA;&#9;&#9;c-10.4,7.8-18,28.6-17.9,42.1c0.1,9.2,0.2,17.2-9.6,25.2l-2.7,2.1c-1.8,1.2-3.4,2.6-4.8,4.1c-4.8,5.7-3.5,14.5-0.9,20.4&#xA;&#9;&#9;c0.2,0.4,0.4,0.9,0.6,1.3c1.2,2.6,2.5,5.5,2.2,8.8c-0.4,4.5-3.8,7.6-6.8,10.4c-0.8,0.7-1.5,1.4-2.2,2.1c-6.9,7-8.6,18.8-3.7,26.8&#xA;&#9;&#9;c8.8,14.5,29.2,16.2,44.7,15.2c4.6-0.3,9.3-0.4,13.9-0.4c14.7-0.1,29.9-0.3,42.2-8.8c9.5-6.6,17-19.6,12.8-31.9&#xA;&#9;&#9;c-1.1-2.9-2.5-5.7-4.2-8.3c-0.8-1.5-1.7-2.9-2.5-4.4c-5.5-10.6-1.9-16.8,2.3-23.8c1-1.7,2.1-3.5,3.1-5.5c1.9-3.8,2.4-8.3,2.9-13&#xA;&#9;&#9;c0.7-6.8,1.4-13.9,6.8-19.1c0.3-0.3,0.7-0.5,1.1-0.6c1.2-0.2,2.8-0.4,4.3-0.5c3-0.3,6.8-0.6,8.6-1.7c0.1-0.1,0.2-0.1,0.3-0.2&#xA;&#9;&#9;c1.1-0.9,1.1-2.5,1-5.2v-1.7c0-17-6.5-31.9-17.2-39.8c-10.5-7.7-24.6-9.2-41.8-4.3c-4.5,1.3-8,3.9-9.7,7.1c-0.5,1-1.8,1.4-2.8,0.9&#xA;&#9;&#9;C120.9,198.8,118.4,198.2,115.9,198.3z"/>
	<path class="st4_reminder-note-44" d="M178.1,262c-6.7,0-12.1,5.9-12.1,13.2s5.4,13.2,12.1,13.2"/>
	<path class="st1_reminder-note-44" d="M178.1,290.5c-7.8,0-14.2-6.9-14.2-15.3s6.4-15.2,14.2-15.2c1.1,0.1,2,1.1,1.9,2.2c-0.1,1-0.9,1.8-1.9,1.9&#xA;&#9;&#9;c-5.5,0-10,5-10,11.1s4.5,11.1,10,11.1c1.2,0,2.1,0.9,2.1,2.1S179.3,290.5,178.1,290.5L178.1,290.5z"/>
</g>
<g id="pin_reminder-note-44">
	<path class="st1_reminder-note-44" d="M306.3,147.5c3.6,0,6.5-3,6.5-6.6c0-2.1-1-4.1-2.7-5.3l-24-17.2c-2.9-2.1-7-1.4-9.1,1.5&#xA;&#9;&#9;c-2.1,2.9-1.4,7,1.5,9.1l24,17.2C303.6,147,305,147.5,306.3,147.5z"/>
	<ellipse transform="matrix(0.642 -0.7667 0.7667 0.642 9.7284 246.3549)" class="st6_reminder-note-44" cx="268.7" cy="112.8" rx="38" ry="25.5"/>
	<path class="st1_reminder-note-44" d="M243,143.5c-5.8-4.9-8.4-12.6-7.5-22c0.9-9,5.2-18.5,12-26.6l0,0c6.8-8.1,15.3-14,24-16.5&#xA;&#9;&#9;c8.9-2.6,17.1-1.4,22.9,3.4c11.6,9.8,9.6,31.6-4.6,48.5c-6.8,8.1-15.3,14-24,16.5c-2.9,0.8-5.9,1.3-8.9,1.3&#xA;&#9;&#9;C251.8,148.4,246.9,146.8,243,143.5z M272.7,82.6c-7.8,2.3-15.5,7.6-21.8,15.1l0,0c-6.3,7.5-10.2,16-11,24.2&#xA;&#9;&#9;c-0.8,7.8,1.2,14.2,5.9,18.2s11.4,4.9,19,2.6c7.8-2.2,15.7-7.6,21.8-15.1c12.7-15.1,15-34.2,5.1-42.4c-3.2-2.6-7.2-3.9-11.3-3.8&#xA;&#9;&#9;C277.8,81.6,275.2,82,272.7,82.6L272.7,82.6z"/>
	<path class="st6_reminder-note-44" d="M240.6,72.2L274,91.9c0,0,2.6,8.4-5.3,19.7c-8.3,11.9-18.9,9.6-18.9,9.6l-29-29.7L240.6,72.2z"/>
	<path class="st1_reminder-note-44" d="M249.3,123.5c-0.4-0.1-0.8-0.3-1.1-0.6l-29-29.7l0,0c-0.8-0.9-0.8-2.2,0-3.1L239,70.8c0.7-0.7,1.8-0.8,2.6-0.4&#xA;&#9;&#9;l33.5,19.7c0.5,0.2,0.9,0.7,1,1.2c0.1,0.3,2.9,9.6-5.7,21.6c-6.5,9.4-14.5,10.7-18.5,10.7C251,123.6,250.2,123.6,249.3,123.5z&#xA;&#9;&#9; M240.8,74.9l-17,16.6l26.9,27.7c2.1,0.2,9.6,0.2,16-8.8c5.9-8.4,5.6-15,5.2-17.1L240.8,74.9z"/>
	<ellipse transform="matrix(0.6235 -0.7818 0.7818 0.6235 25.411 203.5509)" class="st6_reminder-note-44" cx="224" cy="75.4" rx="26.1" ry="15.8"/>
	<path class="st1_reminder-note-44" d="M206.5,97.6c-7.8-6.3-6.3-21,3.6-33.4l0,0c4.2-5.4,9.7-9.6,16-12.2c6.1-2.3,11.6-1.8,15.6,1.3&#xA;&#9;&#9;c7.8,6.2,6.3,20.9-3.6,33.2c-6.9,8.7-15.8,13.7-23.3,13.7C211.8,100.4,208.8,99.4,206.5,97.6z M233.3,54.9c-2,0.1-4,0.5-5.8,1.2&#xA;&#9;&#9;c-5.6,2.3-10.5,6-14.1,10.8l0,0c-8.1,10.1-10.1,22.6-4.3,27.2s17.4-0.1,25.5-10.2s10.1-22.6,4.3-27.2&#xA;&#9;&#9;C237.3,55.4,235.3,54.8,233.3,54.9z"/>
</g>
<g id="notification_reminder-note-44">
	<circle class="st7_reminder-note-44" cx="412.6" cy="71.2" r="11.9"/>
	<path class="st1_reminder-note-44" d="M412.6,85.5c-7.9,0-14.3-6.5-14.3-14.4s6.5-14.3,14.4-14.3c7.9,0,14.3,6.5,14.3,14.4&#xA;&#9;&#9;C427,79.1,420.5,85.5,412.6,85.5C412.6,85.5,412.6,85.5,412.6,85.5z M412.6,61.7c-5.3,0-9.5,4.3-9.5,9.5s4.3,9.5,9.5,9.5&#xA;&#9;&#9;s9.5-4.3,9.5-9.5c0,0,0,0,0,0C422.1,65.9,417.8,61.7,412.6,61.7z"/>
	<path class="st7_reminder-note-44" d="M412.7,73.8L412.7,73.8c16.3,0,29.5,13.2,29.5,29.5l0,0v29.5l0,0h-58.9l0,0v-29.5&#xA;&#9;&#9;C383.2,87,396.4,73.8,412.7,73.8L412.7,73.8z"/>
	<path class="st1_reminder-note-44" d="M442.1,135.1h-58.9c-1.3,0-2.4-1.1-2.4-2.4c0,0,0,0,0,0v-29.5c0-17.6,14.3-31.9,31.9-31.9&#xA;&#9;&#9;c17.6,0,31.9,14.3,31.9,31.9v29.5C444.6,134.1,443.5,135.1,442.1,135.1C442.2,135.1,442.2,135.1,442.1,135.1z M385.6,130.3h54.1&#xA;&#9;&#9;v-27c0-14.9-12.1-27-27-27c-14.9,0-27,12.1-27,27V130.3z"/>
	<circle class="st7_reminder-note-44" cx="412.6" cy="142.8" r="11.9"/>
	<path class="st1_reminder-note-44" d="M412.6,157.1c-7.9,0-14.3-6.5-14.3-14.4c0-7.9,6.5-14.3,14.4-14.3c7.9,0,14.3,6.5,14.3,14.4&#xA;&#9;&#9;C427,150.7,420.5,157.2,412.6,157.1C412.6,157.2,412.6,157.2,412.6,157.1z M412.6,133.3c-5.3,0-9.5,4.3-9.5,9.5s4.3,9.5,9.5,9.5&#xA;&#9;&#9;c5.3,0,9.5-4.3,9.5-9.5c0,0,0,0,0,0C422.1,137.5,417.8,133.3,412.6,133.3z"/>
	<path class="st7_reminder-note-44" d="M382.1,123.5H443c5.1,0,9.3,4.1,9.3,9.3v0c0,5.1-4.1,9.3-9.3,9.3h-60.9c-5.1,0-9.3-4.1-9.3-9.3v0&#xA;&#9;&#9;C372.9,127.6,377,123.5,382.1,123.5z"/>
	<path class="st1_reminder-note-44" d="M443,144.4h-60.9c-6.5-0.2-11.5-5.6-11.3-12c0.2-6.2,5.2-11.2,11.3-11.3h60.9c6.5,0.2,11.5,5.6,11.3,12&#xA;&#9;&#9;C454.2,139.3,449.2,144.2,443,144.4L443,144.4z M382.1,125.9c-3.8,0-6.8,3.1-6.8,6.8c0,3.8,3.1,6.8,6.8,6.8c0,0,0,0,0,0H443&#xA;&#9;&#9;c3.8,0,6.8-3.1,6.8-6.8c0-3.8-3.1-6.8-6.8-6.8L382.1,125.9z"/>
	<path class="st1_reminder-note-44" d="M377.9,72.6c-0.7,0-1.3-0.3-1.8-0.8l-10-10.9c-0.9-1-0.8-2.5,0.1-3.4c1-0.9,2.5-0.8,3.4,0.1l10,10.9&#xA;&#9;&#9;c0.9,1,0.8,2.5-0.1,3.4C379.1,72.3,378.5,72.6,377.9,72.6z"/>
	<path class="st1_reminder-note-44" d="M370.1,89.6c-0.3,0-0.5,0-0.7-0.1l-13-4.2c-1.3-0.4-2-1.7-1.6-3c0.4-1.3,1.7-2,3-1.6c0,0,0.1,0,0.1,0l13,4.2&#xA;&#9;&#9;c1.3,0.4,2,1.8,1.6,3C372.1,89,371.1,89.6,370.1,89.6L370.1,89.6z"/>
	<path class="st1_reminder-note-44" d="M445.4,72.6c-1.3,0-2.4-1.1-2.4-2.4c0-0.6,0.2-1.2,0.6-1.6l10-10.9c0.9-1,2.4-1,3.4-0.1c1,0.9,1,2.4,0.1,3.4&#xA;&#9;&#9;l-10,10.9C446.8,72.3,446.1,72.6,445.4,72.6z"/>
	<path class="st1_reminder-note-44" d="M453.2,89.6c-1.3,0-2.4-1.1-2.4-2.4c0-1.1,0.7-2,1.7-2.3l13-4.2c1.3-0.4,2.6,0.3,3.1,1.6s-0.3,2.6-1.6,3.1&#xA;&#9;&#9;l-13,4.2C453.8,89.6,453.5,89.6,453.2,89.6z"/>
</g>
</svg>